# Rhino

mtllib tool1.mtl
usemtl diffuse_0
v -0.034354027360677719 -0.013140823692083359 0.029999999329447746
v 0.2025267481803894 0.22373995184898376 0.029999999329447746
v -0.013140823692083359 -0.034354027360677719 0.029999999329447746
v 0.22373995184898376 0.2025267481803894 0.029999999329447746
v -0.013140823692083359 -0.034354027360677719 0.029999999329447746
v 0.22373995184898376 0.2025267481803894 0.029999999329447746
v -0.013140823692083359 -0.034354027360677719 0
v 0.22373995184898376 0.2025267481803894 0
v -0.013140823692083359 -0.034354027360677719 0
v 0.22373995184898376 0.2025267481803894 0
v -0.034354027360677719 -0.013140823692083359 0
v 0.2025267481803894 0.22373995184898376 0
v -0.034354027360677719 -0.013140823692083359 0
v 0.2025267481803894 0.22373995184898376 0
v -0.034354027360677719 -0.013140823692083359 0.029999999329447746
v 0.2025267481803894 0.22373995184898376 0.029999999329447746
v -0.034354027360677719 -0.013140823692083359 0.029999999329447746
v -0.013140823692083359 -0.034354027360677719 0.029999999329447746
v -0.013140823692083359 -0.034354027360677719 0
v -0.034354027360677719 -0.013140823692083359 0
v 0.2025267481803894 0.22373995184898376 0.029999999329447746
v 0.22373995184898376 0.2025267481803894 0.029999999329447746
v 0.22373995184898376 0.2025267481803894 0
v 0.2025267481803894 0.22373995184898376 0
vt 0 0
vt 0 1
vt 0.20833316445350647 0
vt 0.20833316445350647 1
vt 0.20833316445350647 0
vt 0.20833316445350647 1
vt 0.41666632890701294 0
vt 0.41666632890701294 1
vt 0.41666632890701294 0
vt 0.41666632890701294 1
vt 0.62499946355819702 0
vt 0.62499946355819702 1
vt 0.62499946355819702 0
vt 0.62499946355819702 1
vt 0.83333265781402588 0
vt 0.83333265781402588 1
vt 1 0.089552238583564758
vt 1 0
vt 0.83333349227905273 0
vt 0.83333349227905273 0.089552238583564758
vt 1 0.91044777631759644
vt 1 1
vt 0.83333349227905273 1
vt 0.83333349227905273 0.91044777631759644
vn 0 0 1
vn 0 0 1
vn 0 0 1
vn 0 0 1
vn 0.70710676908493042 -0.70710676908493042 0
vn 0.70710676908493042 -0.70710676908493042 0
vn 0.70710676908493042 -0.70710676908493042 0
vn 0.70710676908493042 -0.70710676908493042 0
vn 0 0 -1
vn 0 0 -1
vn 0 0 -1
vn 0 0 -1
vn -0.70710676908493042 0.70710676908493042 0
vn -0.70710676908493042 0.70710676908493042 0
vn -0.70710676908493042 0.70710676908493042 0
vn -0.70710676908493042 0.70710676908493042 0
vn -0.70710676908493042 -0.70710676908493042 0
vn -0.70710676908493042 -0.70710676908493042 0
vn -0.70710676908493042 -0.70710676908493042 0
vn -0.70710676908493042 -0.70710676908493042 0
vn 0.70710676908493042 0.70710676908493042 0
vn 0.70710676908493042 0.70710676908493042 0
vn 0.70710676908493042 0.70710676908493042 0
vn 0.70710676908493042 0.70710676908493042 0
f 1/1/1 3/3/3 4/4/4
f 5/5/5 7/7/7 8/8/8
f 9/9/9 11/11/11 12/12/12
f 13/13/13 15/15/15 16/16/16
f 18/18/18 17/17/17 20/20/20
f 20/20/20 19/19/19 18/18/18
f 22/22/22 24/24/24 21/21/21
f 24/24/24 22/22/22 23/23/23
f 1/1/1 4/4/4 2/2/2
f 5/5/5 8/8/8 6/6/6
f 9/9/9 12/12/12 10/10/10
f 13/13/13 16/16/16 14/14/14
