# Rhino

mtllib tool.mtl
usemtl diffuse_0
v 0.14967139065265656 0.20623993873596191 -0.23000000417232513
v 0.14967139065265656 0.20623993873596191 0.17000000178813934
v 0.18467140197753906 0.20623993873596191 -0.23000000417232513
v 0.18467140197753906 0.20623993873596191 0.17000000178813934
v 0.18467140197753906 0.20623993873596191 -0.23000000417232513
v 0.18467140197753906 0.20623993873596191 0.17000000178813934
v 0.18467140197753906 0.24123995006084442 -0.23000000417232513
v 0.18467140197753906 0.24123995006084442 0.17000000178813934
v 0.18467140197753906 0.24123995006084442 -0.23000000417232513
v 0.18467140197753906 0.24123995006084442 0.17000000178813934
v 0.14967139065265656 0.24123995006084442 -0.23000000417232513
v 0.14967139065265656 0.24123995006084442 0.17000000178813934
v 0.14967139065265656 0.24123995006084442 -0.23000000417232513
v 0.14967139065265656 0.24123995006084442 0.17000000178813934
v 0.14967139065265656 0.20623993873596191 -0.23000000417232513
v 0.14967139065265656 0.20623993873596191 0.17000000178813934
v 0.14967139065265656 0.20623993873596191 -0.23000000417232513
v 0.18467140197753906 0.20623993873596191 -0.23000000417232513
v 0.14967139065265656 0.24123995006084442 -0.23000000417232513
v 0.18467140197753906 0.24123995006084442 -0.23000000417232513
v 0.14967139065265656 0.20623993873596191 0.17000000178813934
v 0.14967139065265656 0.24123995006084442 0.17000000178813934
v 0.18467140197753906 0.20623993873596191 0.17000000178813934
v 0.18467140197753906 0.24123995006084442 0.17000000178813934
vt 0.99853515625 0.6896551251411438
vt 0.080459803342819214 0.6896551251411438
vt 0.99853515625 0.7701149582862854
vt 0.080459803342819214 0.7701149582862854
vt 0.99853515625 0.45977011322975159
vt 0.080459803342819214 0.45977011322975159
vt 0.99853515625 0.5402299165725708
vt 0.080459803342819214 0.5402299165725708
vt 0 0
vt 0 0.91807538270950317
vt 0.078994959592819214 0
vt 0.078994959592819214 0.91807538270950317
vt 0.99853515625 0.22988507151603699
vt 0.080459803342819214 0.22988507151603699
vt 0.99853515625 0.31034484505653381
vt 0.080459803342819214 0.31034484505653381
vt 0.5402299165725708 0
vt 0.5402299165725708 0.080459803342819214
vt 0.62068969011306763 0
vt 0.62068969011306763 0.080459803342819214
vt 0.16091959178447723 0
vt 0.080459803342819214 0
vt 0.16091959178447723 0.080459803342819214
vt 0.080459803342819214 0.080459803342819214
vn 0 -1 0
vn 0 -1 0
vn 0 -1 0
vn 0 -1 0
vn 1 0 0
vn 1 0 0
vn 1 0 0
vn 1 0 0
vn 0 1 0
vn 0 1 0
vn 0 1 0
vn 0 1 0
vn -1 0 0
vn -1 0 0
vn -1 0 0
vn -1 0 0
vn 0 0 -1
vn 0 0 -1
vn 0 0 -1
vn 0 0 -1
vn 0 0 1
vn 0 0 1
vn 0 0 1
vn 0 0 1
f 2/2/2 1/1/1 3/3/3
f 6/6/6 5/5/5 7/7/7
f 10/10/10 9/9/9 11/11/11
f 14/14/14 13/13/13 15/15/15
f 18/18/18 17/17/17 19/19/19
f 22/22/22 21/21/21 23/23/23
f 2/2/2 3/3/3 4/4/4
f 6/6/6 7/7/7 8/8/8
f 10/10/10 11/11/11 12/12/12
f 14/14/14 15/15/15 16/16/16
f 18/18/18 19/19/19 20/20/20
f 22/22/22 23/23/23 24/24/24
