# Rhino

mtllib tool2.mtl
usemtl diffuse_0
v 0.025750048458576202 0.079490162432193756 0.070399999618530273
v 0.025750048458576202 0.079490162432193756 -0.094600000381469734
v 0.098582044243812561 0.15232215821743011 0.070399999618530273
v 0.098582044243812561 0.15232215821743011 -0.094600000381469734
v 0.098582044243812561 0.15232215821743011 0.070399999618530273
v 0.098582044243812561 0.15232215821743011 -0.094600000381469734
v 0.12615920603275299 0.12474499642848969 0.070399999618530273
v 0.12615920603275299 0.12474499642848969 -0.094600000381469734
v 0.12615920603275299 0.12474499642848969 0.070399999618530273
v 0.12615920603275299 0.12474499642848969 -0.094600000381469734
v 0.053327213972806931 0.051913000643253326 0.070399999618530273
v 0.053327213972806931 0.051913000643253326 -0.094600000381469734
v 0.053327213972806931 0.051913000643253326 0.070399999618530273
v 0.053327213972806931 0.051913000643253326 -0.094600000381469734
v 0.025750048458576202 0.079490162432193756 0.070399999618530273
v 0.025750048458576202 0.079490162432193756 -0.094600000381469734
v 0.025750048458576202 0.079490162432193756 0.070399999618530273
v 0.098582044243812561 0.15232215821743011 0.070399999618530273
v 0.12615920603275299 0.12474499642848969 0.070399999618530273
v 0.053327213972806931 0.051913000643253326 0.070399999618530273
v 0.025750048458576202 0.079490162432193756 -0.094600000381469734
v 0.098582044243812561 0.15232215821743011 -0.094600000381469734
v 0.12615920603275299 0.12474499642848969 -0.094600000381469734
v 0.053327213972806931 0.051913000643253326 -0.094600000381469734
vt 0 0
vt 0 0.80825895071029663
vt 0.36267605423927307 0
vt 0.36267605423927307 0.80825895071029663
vt 0.36267605423927307 0
vt 0.36267605423927307 0.80825895071029663
vt 0.5 0
vt 0.5 0.80825895071029663
vt 0.5 0
vt 0.5 0.80825895071029663
vt 0.86267608404159546 0
vt 0.86267608404159546 0.80825895071029663
vt 0.86267608404159546 0
vt 0.86267608404159546 0.80825895071029663
vt 1 0
vt 1 0.80825895071029663
vt 0 1
vt 0.36267605423927307 1
vt 0.36267605423927307 0.80825972557067871
vt 0 0.80825972557067871
vt 0.63732391595840454 0.80825972557067871
vt 1 0.80825972557067871
vt 1 1
vt 0.63732391595840454 1
vn -0.70710676908493042 0.70710676908493042 0
vn -0.70710676908493042 0.70710676908493042 0
vn -0.70710676908493042 0.70710676908493042 0
vn -0.70710676908493042 0.70710676908493042 0
vn 0.70710676908493042 0.70710676908493042 0
vn 0.70710676908493042 0.70710676908493042 0
vn 0.70710676908493042 0.70710676908493042 0
vn 0.70710676908493042 0.70710676908493042 0
vn 0.70710676908493042 -0.70710676908493042 0
vn 0.70710676908493042 -0.70710676908493042 0
vn 0.70710676908493042 -0.70710676908493042 0
vn 0.70710676908493042 -0.70710676908493042 0
vn -0.70710676908493042 -0.70710676908493042 0
vn -0.70710676908493042 -0.70710676908493042 0
vn -0.70710676908493042 -0.70710676908493042 0
vn -0.70710676908493042 -0.70710676908493042 0
vn 0 0 1
vn 0 0 1
vn 0 0 1
vn 0 0 1
vn 0 0 -1
vn 0 0 -1
vn 0 0 -1
vn 0 0 -1
f 1/1/1 3/3/3 4/4/4
f 5/5/5 7/7/7 8/8/8
f 9/9/9 11/11/11 12/12/12
f 13/13/13 15/15/15 16/16/16
f 18/18/18 17/17/17 20/20/20
f 20/20/20 19/19/19 18/18/18
f 22/22/22 24/24/24 21/21/21
f 24/24/24 22/22/22 23/23/23
f 1/1/1 4/4/4 2/2/2
f 5/5/5 8/8/8 6/6/6
f 9/9/9 12/12/12 10/10/10
f 13/13/13 16/16/16 14/14/14
